Coordinates
version=1
nRows=8
nColumns=40
inDegrees=yes

Units are S.I. units (second, meters, Newtons, ...)
If the header above contains a line with 'inDegrees', this indicates whether rotational values are in degrees (yes) or radians (no).

endheader
time	pelvis_tilt	pelvis_list	pelvis_rotation	pelvis_tx	pelvis_ty	pelvis_tz	hip_flexion_r	hip_adduction_r	hip_rotation_r	knee_angle_r	knee_angle_r_beta	ankle_angle_r	subtalar_angle_r	mtp_angle_r	hip_flexion_l	hip_adduction_l	hip_rotation_l	knee_angle_l	knee_angle_l_beta	ankle_angle_l	subtalar_angle_l	mtp_angle_l	lumbar_extension	lumbar_bending	lumbar_rotation	arm_flex_r	arm_add_r	arm_rot_r	elbow_flex_r	pro_sup_r	wrist_flex_r	wrist_dev_r	arm_flex_l	arm_add_l	arm_rot_l	elbow_flex_l	pro_sup_l	wrist_flex_l	wrist_dev_l
      4.67499999999999982236	      3.91399951076756069668	     -1.65099310831369039398	   -179.56891996182358184342	      0.39771832755011793381	      0.64420276434657253173	     -0.99509374626475433079	     59.61599916746906302478	    -49.82381740679906556579	     -9.49699900269916419404	     61.45522129341947703551	      1.07259595411189811998	     -1.40295872514088570959	      0.00000000000000000000	      0.00000000000000000000	     54.76356201233839726683	    -49.47736278834990741871	    -19.01206020944277597096	     59.10092176143749043149	      1.03150567570065088141	     -2.92688845806727071519	      0.00000000000000000000	      0.00000000000000000000	    -64.49070639048690622985	      3.59294351124375532791	      3.49868590000709733800	     62.38017949298609465814	     -9.40913141026553745405	     35.69862694669626534960	      1.86570360922809808102	     72.37834592129914312864	      0.00000000000000000000	      0.00000000000000000000	     50.53879270093339926007	      0.00333896943613985839	     38.55195571279529787034	      2.16447902485644538828	      7.84440279282758101687	      0.00000000000000000000	      0.00000000000000000000
      4.67999999999999971578	      3.55964212334164731288	     -1.67446159092133362023	   -179.58683785088322792944	      0.39731838635011429428	      0.64625318878899107311	     -0.99534054658131176918	     58.84371121383264124916	    -49.82555382365719509608	     -9.89270025053799528791	     61.15382094370832533059	      1.06733552564277611729	     -1.44732920307692114470	      0.00000000000000000000	      0.00000000000000000000	     53.88889140039600533783	    -49.46763315293094365188	    -19.56719893756823935860	     58.71397856756876620921	      1.02475224294945888026	     -3.05089787353619046328	      0.00000000000000000000	      0.00000000000000000000	    -65.02258311975880644695	      3.56607877379461779555	      3.49026929211361025551	     62.50303064677756026413	     -9.42187662484838561738	     36.00268877862083627406	      1.82551851615642712900	     72.80506837841028300318	      0.00000000000000000000	      0.00000000000000000000	     50.66280637310947554397	      0.01304194053137180780	     38.72587401174627785849	      2.13671570568893098852	      7.84741597027451565083	      0.00000000000000000000	      0.00000000000000000000
      4.68499999999999960920	      3.74671896075552401939	     -1.62183355194780687292	   -179.55981913784412995483	      0.39727103118625090028	      0.64688169410388440816	     -0.99557824105107062262	     58.79035618416957476029	    -49.82071408633890285955	    -10.24529172604115423439	     61.01452530230809401246	      1.06490435806666483565	     -1.51247806254357786138	      0.00000000000000000000	      0.00000000000000000000	     53.95456726383363843524	    -49.45224621768318229442	    -19.67311804073831638107	     58.46827510641546865600	      1.02046390856878788078	     -3.23681083999549423780	      0.00000000000000000000	      0.00000000000000000000	    -64.91644620883728578065	      3.59983408507546442934	      3.53206594698583797864	     62.52646649800730216384	     -9.44350631746391400156	     36.03267736084902139737	      1.83036198323627341544	     72.83254261974481380548	      0.00000000000000000000	      0.00000000000000000000	     50.65910077318953597114	      0.01549517675046858597	     38.72901091543710094811	      2.15735214000484898378	      7.86930991458777739922	      0.00000000000000000000	      0.00000000000000000000
      4.69000000000000039080	      3.92903064962100145863	     -1.58855217070207843655	   -179.54115291445748425758	      0.39701672465558390801	      0.64769032686142491428	     -0.99579697240758169308	     58.70444557979757860267	    -49.81669433152527659558	    -10.58872121886543737901	     60.84735757805993472402	      1.06198673087546846538	     -1.58213701623372493543	      0.00000000000000000000	      0.00000000000000000000	     53.95052473565306172532	    -49.43544485370244245814	    -19.84118772276998399207	     58.22827287442076737989	      1.01627507940834505007	     -3.34085121820255093184	      0.00000000000000000000	      0.00000000000000000000	    -64.81343898196782049581	      3.75988440202226836817	      3.58653940745069554907	     62.57312946387047247754	     -9.44287088228648308075	     36.07740043867295298696	      1.81211917965929969476	     72.85602585167448808079	      0.00000000000000000000	      0.00000000000000000000	     50.59448643669863798777	      0.04519103634989990459	     38.71702603966310363148	      2.17308819876149517114	      7.89150238127906522578	      0.00000000000000000000	      0.00000000000000000000
      4.69500000000000028422	      4.05647592559332359485	     -1.54314585849897656367	   -179.51779643499321537092	      0.39700162956025852878	      0.64830125635894497726	     -0.99599909289909560606	     58.63572700754662037070	    -49.81113742823623624645	    -10.86447412169722781528	     60.74774546313135203945	      1.06024817149508976399	     -1.59903473833907616708	      0.00000000000000000000	      0.00000000000000000000	     54.01201650410100540967	    -49.40470670809941111656	    -19.83661791583875100287	     58.07731588445105330720	      1.01364038290447355806	     -3.41916812177609186207	      0.00000000000000000000	      0.00000000000000000000	    -64.76585058551354734391	      3.75416667458394259782	      3.58011069535619252946	     62.55891632927626488936	     -9.44390650563159184117	     36.08986012135456888927	      1.83350408779329865361	     72.85556432547386407350	      0.00000000000000000000	      0.00000000000000000000	     50.59398560774180708677	      0.01182460311910601275	     38.70958675838598139762	      2.18800285497872692986	      7.91208354299237637264	      0.00000000000000000000	      0.00000000000000000000
      4.70000000000000017764	      4.23598870039114316910	     -1.49579522718711199758	   -179.49417384500242178547	      0.39700066520289983840	      0.64910844971316317142	     -0.99636807001846949827	     58.55099316057803093827	    -49.80926738792513930321	    -11.27042950734625925691	     60.59255049485642530271	      1.05753950831616405637	     -1.70139461575590966724	      0.00000000000000000000	      0.00000000000000000000	     53.98830180797638433887	    -49.38385446614569218582	    -20.04097931055546766288	     57.73232575123592624777	      1.00761916919297567219	     -3.63261377891600378831	      0.00000000000000000000	      0.00000000000000000000	    -64.66779239201386531022	      3.69829023939832080003	      3.59735717375751029579	     62.52745930827248344031	     -9.43810255094378902641	     36.11344490185655331516	      1.84609720943766775214	     72.87367492180369765720	      0.00000000000000000000	      0.00000000000000000000	     50.64927014176673480961	     -0.02972455788333343285	     38.70106021304591337184	      2.18237207069834493467	      7.92597367037524325184	      0.00000000000000000000	      0.00000000000000000000
      4.70500000000000007105	      3.39673096068020807792	     -1.45709793532695597307	   -179.50673438834559192401	      0.39604174753029336431	      0.65265181392499471702	     -0.99668061665249729764	     56.84731210367289833130	    -49.81148531049673522375	    -12.13068689353267970432	     60.09188928507921190203	      1.04880132176853368975	     -1.69346255064596307172	      0.00000000000000000000	      0.00000000000000000000	     52.37338250821036922389	    -49.39935336868452964154	    -20.77253434691964528724	     57.13999116619903873016	      0.99728098041064772161	     -3.76905600270206786462	      0.00000000000000000000	      0.00000000000000000000	    -65.79056088907260857468	      3.82259526739663169081	      3.64715426330320147130	     62.84641705544416367957	     -9.43581728218396342811	     36.23670309064781491770	      1.81082831498122454050	     73.49516927713742120432	      0.00000000000000000000	      0.00000000000000000000	     50.91867164988968141870	      0.04203779393035932122	     38.10459912610620136775	      2.17553314474744574625	      7.82939942951412515271	      0.00000000000000000000	      0.00000000000000000000
      4.70999999999999996447	      3.58547057609914388010	     -1.40184426314881949160	   -179.47450815089968045868	      0.39602257933986495519	      0.65332643744129481611	     -0.99695072072956703035	     56.79993710457154776350	    -49.80570121298341490501	    -12.49279271570506466560	     59.96809914655424478269	      1.04664077626977314317	     -1.76880510103235644159	      0.00000000000000000000	      0.00000000000000000000	     52.44101152528528331231	    -49.37210611402826287986	    -20.86151284053826415743	     56.90258727380745540358	      0.99313750083136420610	     -3.89891222436392759221	      0.00000000000000000000	      0.00000000000000000000	    -65.67147409575375149871	      3.77317380573581839798	      3.67032131384845961009	     62.77239354491895539923	     -9.43986558532240316310	     36.23406893585945454106	      1.83495193939898859625	     73.50414074844414358267	      0.00000000000000000000	      0.00000000000000000000	     50.94228132223662441902	      0.03087286041931680894	     38.09820341782265984421	      2.18286025327195121193	      7.85044191329740037588	      0.00000000000000000000	      0.00000000000000000000
